<svg width="40" height="40" viewBox="0 0 40 40" fill="none" xmlns="http://www.w3.org/2000/svg">
    <path d="M20 0C8.95435 0 0 8.95435 0 20C0 22.185 0.568421 24.305 1.68158 26.181L0 39L13.8184 37.3184C15.694 38.4316 17.814 39 20 39C31.0457 39 40 30.0457 40 20C40 8.95435 31.0457 0 20 0ZM20 34C14.4772 34 10 29.5228 10 24C10 18.4772 14.4772 14 20 14C25.5228 14 30 18.4772 30 24C30 29.5228 25.5228 34 20 34Z" fill="currentColor"/>
    <path d="M30 24C30 20.6863 27.3137 18 24 18C22.4799 18 21.0665 18.5696 20 19.5C18.9335 18.5696 17.5201 18 16 18C12.6863 18 10 20.6863 10 24C10 27.3137 12.6863 30 16 30C17.5201 30 18.9335 29.4304 20 28.5C21.0665 29.4304 22.4799 30 24 30C27.3137 30 30 27.3137 30 24Z" fill="currentColor"/>
</svg>
