<svg width="43" height="41" viewBox="0 0 43 41" fill="none" xmlns="http://www.w3.org/2000/svg">
<rect x="0.5" y="0.5" width="42" height="40" stroke="white"/>
<path fill-rule="evenodd" clip-rule="evenodd" d="M16.245 23.1821L12.9502 19.0053L15.3689 18.2314C15.8079 18.0913 16.2898 18.1562 16.6697 18.4074L18.7695 19.7894L23.8202 17.6694L18.5437 11.2956L22.8402 10.4243L29.7793 15.6057L37.1789 12.7938C38.9902 12.1053 40.9897 13.2567 41.1922 15.1051V15.1051C41.3284 16.3317 40.6063 17.5002 39.4131 17.982L26.1494 23.3359C25.809 23.4726 25.447 23.5477 25.078 23.5563L17.4562 23.7374C16.9814 23.7527 16.5299 23.5443 16.245 23.1821Z" stroke="#7D848D" stroke-width="1.4" stroke-linecap="round" stroke-linejoin="round"/>
<path d="M35.8961 13.325C33.3071 8.47505 28.036 5.14551 21.939 5.14551C13.2852 5.14551 6.27084 11.837 6.27084 20.0934C6.27084 28.3481 13.2852 35.0413 21.939 35.0413C30.5927 35.0413 37.6071 28.3498 37.6071 20.0934C37.6071 19.6475 37.5766 19.2102 37.5372 18.7746" stroke="#7D848D" stroke-width="1.4" stroke-linecap="round" stroke-linejoin="round"/>
<path d="M6.30666 21.0962C2.967 23.4315 1.15921 26.023 1.96546 27.8339C3.10854 30.533 9.55854 30.5928 16.3722 27.9671" stroke="#7D848D" stroke-width="1.4" stroke-linecap="round" stroke-linejoin="round"/>
</svg>
