<svg width="42" height="39" viewBox="0 0 42 39" fill="none" xmlns="http://www.w3.org/2000/svg">
    <path d="M35 18.6875C35 11.0581 28.3413 4.875 20.125 4.875C11.9087 4.875 5.25 11.0581 5.25 18.6875C5.25 26.3169 11.9087 32.5 20.125 32.5" stroke="currentColor" stroke-width="1.5" stroke-linecap="round" stroke-linejoin="round"/>
    <path d="M33.7225 31.3137L36.75 34.125" stroke="currentColor" stroke-width="1.5" stroke-linecap="round" stroke-linejoin="round"/>
    <path d="M33.7186 25.5649C35.4272 27.1514 35.4272 29.7236 33.7186 31.3101C32.0101 32.8966 29.24 32.8966 27.5315 31.3101C25.8229 29.7236 25.8229 27.1514 27.5315 25.5649C29.24 23.9784 32.0101 23.9784 33.7186 25.5649" stroke="currentColor" stroke-width="1.5" stroke-linecap="round" stroke-linejoin="round"/>
    <path d="M6.80225 24.8317H6.90375C11.8615 24.8317 15.1672 24.5684 15.1672 20.2281C15.1672 15.6244 20.125 15.6244 20.125 12.5548C20.125 9.1228 13.5135 9.48518 13.5135 6.41555V6.30505" stroke="currentColor" stroke-width="1.5" stroke-linecap="round" stroke-linejoin="round"/>
    <path d="M35 18.6875H29.631C25.9473 18.6875 23.9925 14.6462 26.439 12.0884L29.9933 8.37366" stroke="currentColor" stroke-width="1.5" stroke-linecap="round" stroke-linejoin="round"/>
</svg>
